<svg width="64" height="56" viewBox="0 0 64 56" fill="none" xmlns="http://www.w3.org/2000/svg">
<path fill-rule="evenodd" clip-rule="evenodd" d="M43.9233 15.5775L47.3643 15.582L47.0517 18.9765L46.403 18.2735L41.9263 22.0157L39.7741 19.6075L33.2621 25.0825L31.8818 20.4447L29.2575 28.8761H14.5278L9.72144 25.3949H26.5034L31.8818 8.71753L35.3718 19.3667L40.1229 15.3958L42.4537 18.1039L44.5975 16.2895L43.9233 15.5775Z" fill="#11287A"/>
<path fill-rule="evenodd" clip-rule="evenodd" d="M14.9078 29.433L19.6968 32.9027H43.8605L48.5876 29.433H14.9089H14.9078ZM20.0602 33.447L23.3384 35.8218L22.9645 36.9289H40.7366L40.3549 35.7571L43.5018 33.4471H20.0611L20.0602 33.447ZM22.8756 37.4851L21.7561 40.9553H41.9338L40.8243 37.4851H22.8757H22.8756ZM21.6677 41.511L20.5478 44.9812H28.5553L31.8579 42.5562L35.2045 44.9812H43.131L42.0215 41.511H21.6674H21.6677ZM20.4594 45.537L19.3362 49.0192H23.4371L28.1808 45.537H20.4593H20.4594ZM35.5844 45.537L40.3903 49.0192H44.3318L43.219 45.537H35.5845H35.5844ZM19.2514 49.5633L18.0638 53.2447L23.1288 49.5633H19.2514ZM40.7546 49.5633L45.5206 53.0165L44.4174 49.5633H40.7545H40.7546Z" fill="#990000"/>
<path d="M34.7258 2.33782e-05L32.7856 3.78283C32.6189 4.10906 32.467 4.32805 32.3445 4.43453C32.2762 4.48745 32.1515 4.52181 31.9487 4.5437L31.9395 4.67238L33.4286 4.77657L33.4378 4.64747C33.2096 4.61729 33.0687 4.57172 33.0012 4.50966C32.9408 4.44781 32.9095 4.38079 32.9144 4.30917C32.9204 4.22331 32.9665 4.08263 33.0577 3.90942L33.4324 3.18094L35.2721 3.3092L35.5105 4.00863C35.5881 4.23689 35.6195 4.40415 35.6127 4.50425C35.6072 4.5831 35.574 4.64541 35.4985 4.69769C35.4306 4.74338 35.2991 4.77047 35.1126 4.76452L35.1034 4.8932L36.9722 5.02354L36.9809 4.89486C36.7887 4.86702 36.642 4.80652 36.541 4.70599C36.4406 4.59845 36.3329 4.38936 36.2195 4.05803L34.8478 0.00828863L34.7266 0L34.7258 2.33782e-05ZM29.1113 0.131609L26.9633 0.281454L26.972 0.410134L27.1511 0.397682C27.3301 0.385142 27.4696 0.42558 27.5698 0.519306C27.6397 0.593478 27.6812 0.777677 27.7019 1.07097L27.9154 4.12565C27.9345 4.39726 27.9247 4.57058 27.8801 4.65283C27.8033 4.78757 27.6646 4.86233 27.4643 4.87615L27.2852 4.8886L27.294 5.01728L30.9668 4.76117L31.2775 3.44531L31.1616 3.43203C31.0602 3.73382 30.9537 3.95687 30.8484 4.10075C30.7363 4.24506 30.6068 4.34782 30.4604 4.4154C30.3209 4.47555 30.065 4.5219 29.6999 4.5474L29.3564 4.57148C29.0486 4.59294 28.8687 4.59098 28.8097 4.57356C28.751 4.55592 28.7056 4.52343 28.6735 4.47518C28.6329 4.40632 28.6017 4.27195 28.5884 4.07877L28.3799 1.10252C28.3606 0.823677 28.3694 0.643495 28.4003 0.569535C28.4307 0.488349 28.4975 0.418775 28.5947 0.369043C28.6914 0.311873 28.869 0.277715 29.1197 0.260288L29.1106 0.131608L29.1113 0.131609ZM38.6877 0.759653L38.6545 0.884183L38.8277 0.930674C39.001 0.977005 39.1194 1.06092 39.1766 1.18014C39.2255 1.27493 39.205 1.4624 39.1288 1.74634L38.3346 4.71133C38.2659 4.96743 38.2008 5.1281 38.1248 5.18952C38.0083 5.29196 37.853 5.31668 37.6659 5.26673L37.4927 5.22065L37.4594 5.34518L39.6219 5.92384C40.1418 6.06304 40.5359 6.11673 40.8115 6.08655C41.0939 6.05829 41.3289 5.95768 41.5301 5.78893C41.7313 5.62018 41.8585 5.42402 41.9197 5.19533C42.0014 4.89057 41.9641 4.6132 41.798 4.34605C41.6795 4.15094 41.4715 3.98439 41.1712 3.82966C41.4657 3.81202 41.7089 3.73589 41.8952 3.59265C42.0908 3.44473 42.214 3.26262 42.2753 3.03393C42.3478 2.76381 42.3205 2.50425 42.1959 2.24815C42.0715 1.99184 41.8543 1.77761 41.5351 1.61056C41.3283 1.4958 41.0375 1.38851 40.6702 1.29011L38.6839 0.759681L38.6877 0.759653ZM34.5215 1.07845L35.1898 3.04434L33.5578 2.9306L34.5215 1.07846V1.07845ZM23.2411 1.10418L19.875 2.19588L19.9153 2.31875L20.0789 2.26562C20.188 2.23012 20.2997 2.22418 20.4129 2.24777C20.4922 2.25988 20.5486 2.29448 20.5961 2.34698C20.6456 2.40648 20.7077 2.55199 20.783 2.78406L21.7325 5.70506C21.8189 5.97115 21.8492 6.15758 21.8168 6.24344C21.7703 6.37904 21.6515 6.47803 21.4671 6.53775L21.303 6.59088L21.3433 6.71375L23.2823 6.08447L23.242 5.96161L23.0783 6.01474C22.976 6.04789 22.8644 6.05369 22.751 6.0301C22.6627 6.01352 22.5995 5.98183 22.5612 5.9338C22.5095 5.86749 22.447 5.72157 22.3738 5.49629L21.9128 4.07708L22.7323 3.81142C22.8825 3.76275 23.005 3.74545 23.0933 3.76202C23.1885 3.77626 23.2631 3.82003 23.3375 3.88655C23.4049 3.95499 23.4679 4.07812 23.5302 4.24645L23.6528 4.2066L23.1564 2.67822L23.0334 2.71807C23.0815 2.9816 23.08 3.16315 23.0177 3.27387C22.9556 3.38439 22.8319 3.46959 22.6409 3.53165L21.8218 3.79731L21.2453 2.02318L22.2417 1.69982C22.474 1.62458 22.6583 1.58745 22.783 1.59978C22.9125 1.60297 23.0256 1.64922 23.1385 1.71808C23.247 1.79608 23.3641 1.92399 23.4874 2.11783L23.6033 2.08006L23.2411 1.10417L23.2411 1.10418ZM39.9184 1.40844C40.1115 1.40823 40.3183 1.44104 40.5469 1.50225C40.9699 1.61532 41.2644 1.79065 41.4275 2.04229C41.5989 2.28882 41.6485 2.54715 41.5762 2.81728C41.5296 2.99027 41.4386 3.13692 41.3166 3.26019C41.1875 3.38154 41.0331 3.45885 40.848 3.48351C40.6632 3.50817 40.4043 3.47626 40.0717 3.38721C39.9469 3.35384 39.8294 3.32207 39.7203 3.28551C39.6182 3.25066 39.5249 3.21081 39.4453 3.17468L39.9184 1.40846L39.9184 1.40844ZM45.9394 3.46857C45.7253 3.45994 45.5079 3.48325 45.2864 3.53872C44.6014 3.70874 44.0794 4.11667 43.7142 4.7753C43.3556 5.42139 43.2582 6.05557 43.4214 6.67892C43.5843 7.30227 43.9563 7.77069 44.5275 8.08693C45.0922 8.39977 45.6902 8.46045 46.3186 8.25919C46.95 8.0677 47.4396 7.65846 47.7907 7.02512C48.1316 6.41049 48.2129 5.79141 48.0437 5.16466C47.8776 4.53175 47.5246 4.07394 46.9849 3.77491C46.6437 3.5859 46.2962 3.48294 45.9394 3.46858V3.46857ZM39.3614 3.48642C39.4276 3.48918 39.5056 3.50295 39.6115 3.52378C39.7085 3.5497 39.828 3.57433 39.9737 3.61344C40.2925 3.69887 40.5496 3.81939 40.7455 3.97582C40.9364 4.12332 41.0605 4.29759 41.1131 4.48972C41.1656 4.68205 41.1697 4.86137 41.1214 5.04138C41.0491 5.31171 40.8839 5.51234 40.6209 5.63497C40.3559 5.7644 40.0198 5.77099 39.6107 5.66154C39.3544 5.59289 39.1049 5.49633 38.8584 5.36351L39.3614 3.48645V3.48642ZM17.418 3.60968C17.0493 3.60495 16.6982 3.69717 16.3608 3.88406C15.8147 4.18649 15.4477 4.6189 15.2605 5.19783C15.0419 5.86836 15.1116 6.52669 15.4769 7.18532C15.8351 7.8314 16.3217 8.25051 16.937 8.44264C17.5522 8.63498 18.1469 8.56794 18.7181 8.25169C19.283 7.93885 19.6512 7.46429 19.8134 6.82501C19.9855 6.18869 19.8975 5.55659 19.5463 4.92304C19.2052 4.30841 18.7229 3.91215 18.1013 3.72342C17.8669 3.65034 17.6392 3.61253 17.418 3.60968ZM46.101 3.78485C46.3355 3.77381 46.5688 3.83262 46.8042 3.96293C47.1996 4.18205 47.4308 4.49051 47.5004 4.89772C47.5916 5.39929 47.4338 6.00871 47.0406 6.7175C46.6754 7.37613 46.2855 7.78314 45.8576 7.94785C45.4397 8.1098 45.0295 8.07951 44.6405 7.864C44.2764 7.66231 44.058 7.36097 43.9851 6.95992C43.8983 6.43625 44.0429 5.83588 44.4221 5.15217C44.787 4.49376 45.2035 4.06842 45.6773 3.87991C45.8195 3.82332 45.9603 3.79148 46.101 3.78485H46.101ZM17.1564 3.94361C17.3007 3.94942 17.4442 3.98177 17.5875 4.04075C18.0612 4.22926 18.4948 4.68622 18.8881 5.39479C19.2534 6.05321 19.3923 6.59945 19.3055 7.04937C19.2215 7.48952 18.9786 7.82055 18.5894 8.03606C18.2255 8.23754 17.8539 8.26334 17.475 8.11244C16.9845 7.90862 16.5513 7.46784 16.1724 6.78413C15.807 6.12572 15.6668 5.54749 15.7578 5.04613C15.8308 4.64488 16.0491 4.34349 16.4257 4.135C16.673 3.99805 16.9158 3.93396 17.1564 3.94364L17.1564 3.94361ZM50.2928 5.91614L50.2097 6.01493L50.3468 6.13033C50.4844 6.24552 50.5564 6.37119 50.5632 6.50806C50.5666 6.60454 50.4689 6.76602 50.2749 6.99662L48.3002 9.34761C48.1296 9.55079 48.002 9.66907 47.9126 9.69712C47.7638 9.74069 47.6122 9.69786 47.4582 9.56885L47.3212 9.45346L47.2377 9.55225L48.7991 10.8619L48.8821 10.7631L48.7392 10.6431C48.6017 10.5279 48.5351 10.4065 48.5328 10.2641C48.5294 10.1679 48.6272 10.0067 48.8165 9.78138L49.7075 8.72122C49.7302 8.7497 49.7577 8.77298 49.7851 8.79594C49.8126 8.81889 49.8345 8.83722 49.8566 8.85571C49.917 8.9065 49.9887 8.96628 50.0867 9.03918L49.8873 11.7751L50.8606 12.5916L50.9436 12.4924C50.7643 12.3045 50.6407 12.1165 50.5843 11.9382C50.5327 11.7544 50.5184 11.4707 50.5407 11.0868L50.6695 9.41608C51.0319 9.59843 51.3542 9.6719 51.6411 9.63152C51.928 9.59135 52.1608 9.45914 52.3501 9.23386C52.5256 9.02537 52.6118 8.7884 52.6101 8.534C52.6129 8.27429 52.5413 8.03617 52.4058 7.82917C52.2705 7.62195 52.0079 7.35472 51.6174 7.02721L50.2928 5.916L50.2928 5.91614ZM51.1194 7.04023C51.3229 7.15499 51.4743 7.25382 51.5788 7.34159C51.815 7.53988 51.9423 7.76797 51.9651 8.03065C51.988 8.29334 51.9071 8.53477 51.7133 8.76537C51.5194 8.99596 51.2699 9.11466 50.9694 9.1153C50.6689 9.11615 50.3406 8.97163 49.9941 8.6811C49.9777 8.66729 49.9556 8.64853 49.9335 8.63004C49.906 8.60709 49.8786 8.5842 49.8458 8.55657L51.1176 7.04018L51.1194 7.04023ZM11.4603 7.32457L10.2263 8.47354L10.3143 8.56818L10.4456 8.44573C10.577 8.32353 10.7109 8.26743 10.8477 8.2772C10.9487 8.2908 11.097 8.40748 11.2975 8.62256L12.6088 10.0289C12.9517 10.3964 13.1645 10.6882 13.2485 10.9043C13.3219 11.1201 13.319 11.3583 13.2282 11.6291C13.1427 11.895 12.9918 12.1332 12.7609 12.3485C12.5822 12.5147 12.4061 12.6206 12.2217 12.6648C12.0371 12.7192 11.8693 12.7283 11.7183 12.6926C11.5622 12.6516 11.3877 12.5591 11.1999 12.4103C11.0174 12.2567 10.8544 12.1139 10.7322 11.9828L9.31823 10.4664C9.13725 10.2722 9.03572 10.1216 9.02913 10.0198C8.99871 9.87144 9.06464 9.73168 9.20649 9.5997L9.34315 9.47227L9.25509 9.37804L7.74812 10.7815L7.8366 10.8761L7.96744 10.7537C8.09866 10.6312 8.22815 10.5699 8.34959 10.5843C8.47102 10.5988 8.62942 10.7059 8.83018 10.9209L10.0975 12.28C10.489 12.6997 10.7796 12.9587 10.9739 13.062C11.2634 13.2042 11.5664 13.2553 11.8882 13.2007C12.2048 13.1509 12.5574 12.9501 12.9353 12.5979C13.2871 12.2704 13.4965 11.9478 13.5692 11.6154C13.6415 11.2932 13.6265 11.0033 13.5189 10.7408C13.406 10.483 13.1881 10.1862 12.8601 9.83466L11.5458 8.42857C11.3646 8.23453 11.2732 8.09436 11.2609 8.00765C11.2269 7.82381 11.278 7.66839 11.4146 7.54109L11.5458 7.41909L11.4577 7.32494L11.4603 7.32457ZM56.1469 12.1543C55.8974 12.156 55.6719 12.23 55.4628 12.3818C55.306 12.4957 55.1862 12.6356 55.1031 12.8023C55.0246 12.9746 54.9785 13.1674 54.9693 13.3867C54.9604 13.606 54.9841 13.9436 55.0345 14.4033C55.0949 14.8647 55.1209 15.1565 55.1135 15.2683C55.1124 15.4375 55.0784 15.5862 55.0233 15.7058C54.9627 15.8297 54.8911 15.926 54.7924 15.9976C54.6239 16.1199 54.4283 16.1559 54.1992 16.1093C53.9804 16.0643 53.7772 15.9192 53.6085 15.6872C53.4609 15.484 53.368 15.259 53.3327 15.0276C53.2991 14.7861 53.3265 14.5798 53.3967 14.3958C53.4769 14.2132 53.6296 13.9963 53.8744 13.7474L53.7988 13.6432L52.4808 14.6L52.5568 14.7046C52.6525 14.653 52.7273 14.634 52.7732 14.6361C52.8232 14.644 52.8702 14.6718 52.9041 14.7183C52.9377 14.7647 52.9876 14.906 53.0644 15.1338C53.1416 15.3617 53.1947 15.5086 53.2256 15.5751C53.2798 15.6865 53.3502 15.7952 53.4303 15.9055C53.6877 16.2594 54.0031 16.4735 54.3766 16.5481C54.7558 16.6184 55.09 16.553 55.3801 16.3422C55.5311 16.2325 55.6524 16.0824 55.7411 15.9117C55.8298 15.7411 55.8802 15.554 55.8819 15.3489C55.8893 15.1395 55.863 14.7859 55.793 14.2871C55.7105 13.6733 55.6935 13.2599 55.7544 13.0384C55.7882 12.8897 55.8692 12.7691 55.9853 12.6848C56.1361 12.5753 56.3219 12.5376 56.5307 12.581C56.7498 12.6258 56.9256 12.7461 57.0649 12.9376C57.1914 13.1116 57.2734 13.3095 57.2987 13.5394C57.3298 13.7651 57.3004 13.9811 57.2127 14.1779C57.1251 14.3747 56.9685 14.5859 56.7384 14.8063L56.8144 14.9105L58.1436 13.9454L58.0676 13.8412C57.9638 13.8812 57.8887 13.9001 57.8387 13.8923C57.7843 13.8785 57.7371 13.8502 57.7033 13.8039C57.6697 13.7573 57.6381 13.6651 57.6086 13.527C57.5484 13.2248 57.4387 12.9767 57.2867 12.7678C57.0506 12.4428 56.7579 12.2475 56.4044 12.1763C56.3157 12.161 56.23 12.1537 56.1469 12.1543L56.1469 12.1543ZM5.29924 14.0911L5.23278 14.1932L7.60322 17.7231C7.80802 18.0268 7.9262 18.2659 7.96002 18.4247C7.97299 18.5099 7.94256 18.6357 7.86323 18.8236L7.97165 18.8941L8.78454 17.6426L8.67613 17.5725C8.53917 17.7572 8.4306 17.8578 8.3434 17.8867C8.26025 17.9096 8.18676 17.9046 8.12658 17.8655C8.05449 17.8188 7.9534 17.7106 7.84579 17.5467L7.38929 16.866L8.39368 15.3197L9.12182 15.4501C9.35917 15.4928 9.52109 15.5466 9.60531 15.6012C9.67124 15.6441 9.70998 15.7032 9.71913 15.7946C9.72614 15.8762 9.68585 16.0042 9.59036 16.1645L9.69861 16.2348L10.7184 14.6649L10.6101 14.5947C10.4927 14.7492 10.3687 14.8482 10.2317 14.8878C10.089 14.9233 9.85392 14.9164 9.50897 14.855L5.29913 14.0912L5.29924 14.0911ZM6.07766 14.8947L8.12214 15.2638L7.23157 16.6352L6.07766 14.8947V14.8947ZM59.1456 15.6635L58.1363 16.1346L58.2002 16.255C58.3972 16.1666 58.5729 16.1301 58.7211 16.1488C58.8757 16.1643 59.0021 16.2189 59.0974 16.3065C59.1665 16.3754 59.2597 16.5045 59.3641 16.7008L59.6304 17.201L56.4233 18.9046C56.1889 19.0291 56.0266 19.0908 55.9398 19.0802C55.7913 19.0615 55.6672 18.9648 55.573 18.7875L55.4953 18.6418L55.3815 18.7024L56.3248 20.4757L56.4386 20.4151L56.3614 20.2694C56.2774 20.1111 56.2573 19.9672 56.3024 19.8377C56.3388 19.7536 56.4807 19.6374 56.7406 19.4994L59.9473 17.7963L60.2605 18.3853C60.3549 18.5625 60.3971 18.7189 60.3975 18.8569C60.3941 18.9886 60.3525 19.1244 60.2721 19.2483C60.2162 19.3267 60.1066 19.4257 59.9456 19.5355L60.0096 19.6559L60.9683 19.0897L59.1456 15.6635L59.1456 15.6635ZM3.10238 18.0056L1.7304 21.3978L1.85002 21.4463L1.91191 21.2932C1.98465 21.1136 2.07839 20.9968 2.19728 20.9519C2.28532 20.9256 2.46943 20.969 2.74891 21.0819L5.61083 22.2379C5.82371 22.324 5.96439 22.3962 6.02288 22.443C6.0854 22.4991 6.11339 22.5646 6.12382 22.6538C6.13275 22.7658 6.1215 22.8697 6.07854 22.976L6.01665 23.1291L6.13628 23.1777L7.50826 19.7855L6.55664 18.9599L6.50264 19.0931C6.71893 19.3428 6.86514 19.5564 6.9417 19.7498C7.00763 19.8926 7.0313 20.026 7.01896 20.1524C7.00663 20.2789 6.95131 20.4733 6.85157 20.7195L6.55042 21.4641C6.50215 21.5838 6.45361 21.665 6.41086 21.6941C6.36556 21.73 6.32143 21.7434 6.27337 21.7472C6.22531 21.7511 6.10281 21.7094 5.90991 21.6314L4.45237 21.0428L4.84532 20.0715C4.91784 19.8921 5.00099 19.7633 5.07586 19.6929C5.15752 19.6254 5.24407 19.583 5.33338 19.5726C5.40399 19.5702 5.55737 19.5933 5.78365 19.646L5.83267 19.5269L4.29494 18.9055L4.24676 19.0255C4.4941 19.1409 4.64694 19.2797 4.70118 19.4331C4.74201 19.5426 4.71182 19.7316 4.61229 19.9777L4.21976 20.9486L2.47602 20.2446L2.96533 19.0338C3.05423 18.8142 3.12947 18.6663 3.19753 18.5934C3.28728 18.5056 3.38607 18.4526 3.4941 18.4344C3.6049 18.4095 3.78353 18.4274 4.03533 18.475L4.08642 18.3489L3.10239 18.0056L3.10238 18.0056ZM56.8232 21.3931L56.7011 21.4354L57.1871 22.8455L57.3092 22.8036C57.2482 22.5819 57.2354 22.4347 57.2665 22.3482C57.2996 22.2685 57.349 22.2134 57.4168 22.1901C57.4983 22.162 57.6455 22.1494 57.8409 22.1656L58.6588 22.2254L59.259 23.9679L58.7082 24.4615C58.5283 24.6219 58.3863 24.716 58.2912 24.7487C58.2166 24.7744 58.1462 24.7683 58.0686 24.7193C58.0001 24.6746 57.9237 24.5644 57.8563 24.3905L57.7342 24.4324L58.3439 26.2024L58.4661 26.1605C58.4167 25.9726 58.415 25.814 58.4682 25.6818C58.5282 25.5475 58.6785 25.3667 58.9396 25.1327L62.134 22.2888L62.0945 22.1734L57.8519 21.8663C57.4863 21.8403 57.2248 21.7864 57.0789 21.7152C57.0036 21.6729 56.923 21.5711 56.8234 21.393L56.8232 21.3931ZM58.9379 22.2428L61.0206 22.4063L59.4709 23.789L58.9379 22.2428L58.9379 22.2428ZM5.85933 23.5852C5.77299 23.8302 5.66184 24.0252 5.52829 24.1564C5.38771 24.2858 5.14131 24.4276 4.78891 24.5818L3.24041 25.2252C3.23849 24.8199 3.15769 24.4994 2.9916 24.2622C2.82529 24.025 2.60186 23.8777 2.31497 23.8114C2.04934 23.75 1.79917 23.7807 1.5731 23.8978C1.34002 24.0134 1.16041 24.1856 1.03728 24.4C0.913927 24.6147 0.794682 24.97 0.680052 25.466L0.290438 27.15L0.416297 27.1795L0.456588 27.0048C0.496783 26.8301 0.576747 26.7085 0.695843 26.6403C0.780061 26.5936 0.968297 26.6074 1.262 26.6752L4.25514 27.3663C4.51396 27.426 4.67665 27.486 4.74237 27.5527C4.84892 27.6656 4.87967 27.8198 4.83458 28.0155L4.79429 28.1903L4.92015 28.2193L5.37914 26.2344L5.25286 26.2053L5.21133 26.3871C5.17092 26.5616 5.09257 26.6763 4.96667 26.7428C4.88203 26.7894 4.69405 26.7755 4.40715 26.7092L3.0576 26.3975C3.0727 26.3643 3.08067 26.3294 3.08875 26.2945C3.09683 26.2595 3.10356 26.2317 3.10994 26.2036C3.1278 26.1269 3.1485 26.0358 3.16892 25.9156L5.69886 24.8508L5.98465 23.6138L5.85921 23.5852L5.85933 23.5852ZM1.97361 24.5603C2.04199 24.5641 2.11244 24.5744 2.18586 24.5914C2.47956 24.6594 2.69853 24.8277 2.83592 25.0949C2.97309 25.3622 2.99345 25.7207 2.89158 26.1608C2.8869 26.1819 2.8801 26.2098 2.87372 26.2376C2.86563 26.2727 2.85775 26.3074 2.84796 26.3493L0.917713 25.9035C0.927496 25.6703 0.946689 25.4905 0.977527 25.3576C1.04707 25.0571 1.19305 24.8406 1.41699 24.7009C1.58495 24.5961 1.76843 24.5487 1.9736 24.5602L1.97361 24.5603ZM62.8573 25.5087L61.7478 25.6067L61.7669 25.7416C61.9821 25.7259 62.1596 25.7518 62.2923 25.8201C62.4323 25.8872 62.5327 25.9818 62.5923 26.0965C62.6335 26.1847 62.6767 26.3379 62.7077 26.5581L62.7867 27.1193L59.1908 27.6245C58.9279 27.6615 58.7542 27.6642 58.6762 27.6245C58.5434 27.5563 58.4598 27.4233 58.4319 27.2244L58.4087 27.0608L58.2807 27.0787L58.5603 29.0674L58.6886 29.0495L58.6658 28.886C58.6407 28.7083 58.6714 28.5664 58.758 28.4601C58.8211 28.3934 58.9937 28.3326 59.2851 28.2916L62.8814 27.7864L62.974 28.4468C63.0021 28.6457 62.989 28.807 62.942 28.9366C62.8939 29.0592 62.8083 29.1726 62.6903 29.2616C62.611 29.3163 62.4742 29.3717 62.2853 29.4202L62.304 29.5551L63.3985 29.3505L62.8573 25.5088L62.8573 25.5087ZM0.176531 28.5904L0.117963 30.2749L0.24673 30.2795L0.25296 30.0997C0.259128 29.9208 0.314293 29.7863 0.417864 29.6967C0.498892 29.635 0.686574 29.6126 0.980699 29.6228L2.90263 29.6896C3.40454 29.707 3.76185 29.7625 3.97388 29.8561C4.17869 29.9566 4.34474 30.1278 4.47234 30.3832C4.60016 30.6317 4.66243 30.9063 4.65137 31.2217C4.64286 31.4655 4.59325 31.6644 4.49436 31.8261C4.40206 31.9951 4.28997 32.1204 4.15791 32.2018C4.01861 32.2832 3.82993 32.3412 3.59216 32.3687C3.3544 32.3893 3.13841 32.403 2.95912 32.3969L0.886405 32.3251C0.621203 32.3157 0.442921 32.2806 0.366359 32.2134C0.240032 32.1301 0.187385 31.9851 0.193978 31.7917L0.200624 31.6053L0.0718575 31.6007L0 33.6601L0.128766 33.6639L0.134997 33.4845C0.141164 33.3054 0.189033 33.1706 0.284947 33.0952C0.381075 33.0197 0.569247 32.9833 0.863159 32.9935L2.72072 33.0582C3.29451 33.0782 3.68278 33.0558 3.89333 32.9914C4.19851 32.8873 4.44904 32.7096 4.63768 32.4435C4.82632 32.1846 4.93321 31.7937 4.95128 31.2775C4.96808 30.7974 4.88747 30.4214 4.70371 30.1351C4.52677 29.8565 4.31089 29.6624 4.04909 29.5528C3.78708 29.4503 3.42317 29.3948 2.94254 29.378L1.0206 29.3112C0.755186 29.3018 0.590876 29.2674 0.520907 29.2149C0.366507 29.1088 0.292923 28.9629 0.299516 28.7766L0.305726 28.598L0.176544 28.5938L0.176531 28.5904ZM58.6825 30.7385L58.6468 32.7749L58.7755 32.777L58.7789 32.6052C58.781 32.4904 58.8115 32.3834 58.8707 32.2839C58.9151 32.2129 58.9663 32.1636 59.0239 32.1432C59.1035 32.1158 59.2616 32.097 59.4983 32.1013L62.5691 32.1556C62.8558 32.1605 63.0345 32.1995 63.1053 32.2582C63.2185 32.3462 63.2736 32.4908 63.2702 32.6845L63.2669 32.8563L63.3961 32.8588L63.4318 30.8224L63.3026 30.8199L63.2997 30.9851C63.2976 31.0998 63.267 31.2065 63.2079 31.306C63.1707 31.3772 63.1197 31.4263 63.0546 31.4467C62.9825 31.4813 62.8242 31.4931 62.5803 31.4886L59.5095 31.4342C59.2299 31.4293 59.0441 31.3976 58.9733 31.3392C58.8601 31.2512 58.8052 31.1064 58.8088 30.9058L58.8117 30.741L58.6825 30.7385V30.7385ZM58.4561 33.7627L58.4407 33.891C58.5458 33.9184 58.6136 33.9558 58.6455 33.9886C58.677 34.0285 58.692 34.0808 58.685 34.138C58.6782 34.1947 58.6175 34.3317 58.5184 34.5506C58.4193 34.7695 58.358 34.914 58.3352 34.9835C58.2991 35.1019 58.276 35.2288 58.2592 35.3642C58.2058 35.7984 58.2904 36.1701 58.5126 36.4791C58.7419 36.7892 59.0305 36.9692 59.3866 37.0129C59.5718 37.0359 59.7632 37.009 59.9448 36.9444C60.1262 36.8803 60.2908 36.7775 60.432 36.6286C60.5805 36.4806 60.8024 36.2044 61.0917 35.7921C61.4504 35.287 61.7205 34.9733 61.9162 34.8528C62.0425 34.7671 62.1837 34.7341 62.3262 34.7515C62.5114 34.7744 62.6726 34.8738 62.796 35.0479C62.9253 35.23 62.9721 35.4377 62.943 35.6726C62.9168 35.8862 62.8416 36.0866 62.7033 36.272C62.5719 36.4581 62.4029 36.5961 62.2045 36.68C62.0062 36.7642 61.7471 36.8119 61.4285 36.8162L61.4128 36.9444L63.0439 37.1445L63.0593 37.0166C62.9559 36.975 62.8881 36.9379 62.857 36.8979C62.8266 36.851 62.8114 36.7984 62.8184 36.7414C62.8256 36.6843 62.8653 36.5955 62.938 36.4745C63.1005 36.2125 63.1898 35.9558 63.2213 35.6995C63.2702 35.301 63.1897 34.9586 62.98 34.6655C62.7622 34.3786 62.493 34.2155 62.1513 34.1737C61.959 34.1501 61.7755 34.1709 61.6013 34.2363C61.4261 34.3088 61.2604 34.4183 61.1041 34.5726C60.9478 34.7269 60.7349 34.9896 60.4578 35.36C60.1869 35.7387 60.0067 35.9694 59.9249 36.0462C59.8085 36.169 59.6824 36.2548 59.5606 36.3048C59.4317 36.3541 59.3132 36.3757 59.1921 36.3608C58.9856 36.3353 58.8184 36.2281 58.6825 36.0379C58.553 35.8555 58.5037 35.6112 58.5388 35.3264C58.5696 35.0773 58.6553 34.8496 58.7876 34.6564C58.9277 34.4566 59.0887 34.3245 59.2657 34.238C59.449 34.1594 59.7083 34.1047 60.0573 34.0898L60.0731 33.9615L58.4561 33.7627L58.4561 33.7627ZM3.84629 34.837C3.78805 34.8381 3.72974 34.8438 3.67142 34.854C3.36028 34.9089 3.12466 35.0598 2.95239 35.3231C2.82543 35.5129 2.76226 35.7714 2.74886 36.1089C2.60828 35.8494 2.43662 35.6615 2.22756 35.5526C2.01042 35.4379 1.79294 35.4033 1.55964 35.4443C1.28402 35.4928 1.05999 35.6272 0.880498 35.8482C0.701003 36.0692 0.598431 36.3568 0.581843 36.7166C0.565254 36.9525 0.590054 37.2611 0.656195 37.6356L1.01299 39.6554L1.1401 39.633L1.10936 39.4566C1.0781 39.28 1.10365 39.1369 1.18787 39.0349C1.25316 38.9505 1.43197 38.8899 1.72163 38.8389L4.74689 38.306C5.00826 38.2598 5.18159 38.2512 5.26942 38.2939C5.41148 38.3562 5.5004 38.4864 5.534 38.6771L5.56474 38.8535L5.69226 38.8311L5.30348 36.6278C5.2099 36.0977 5.0921 35.718 4.94834 35.4813C4.80329 35.2371 4.61249 35.0667 4.37429 34.9558C4.19581 34.8726 4.02107 34.8339 3.84636 34.8371L3.84629 34.837ZM4.071 35.6269C4.26852 35.6334 4.45204 35.7053 4.61888 35.8453C4.84835 36.0306 4.99597 36.3322 5.06955 36.7489C5.1157 37.0104 5.13348 37.2766 5.11732 37.5563L3.20202 37.8938C3.17671 37.8326 3.1559 37.7561 3.13016 37.6514C3.11272 37.5525 3.08446 37.4334 3.0583 37.2852C3.00109 36.9601 3.00167 36.6762 3.06079 36.4326C3.11396 36.1974 3.21985 36.0112 3.37191 35.8826C3.52418 35.7538 3.68494 35.6746 3.86869 35.6423C3.9376 35.6301 4.00514 35.6248 4.07098 35.6269L4.071 35.6269ZM1.79052 36.1558C1.92083 36.1513 2.04751 36.1741 2.17018 36.218C2.335 36.2837 2.47022 36.3912 2.57102 36.548C2.67162 36.7051 2.75176 36.9531 2.81153 37.2923C2.83408 37.4192 2.85505 37.5393 2.86802 37.6534C2.87951 37.7608 2.88296 37.8621 2.88381 37.9494L1.0815 38.2669C0.999621 38.092 0.942272 37.8907 0.901227 37.6576C0.825303 37.2268 0.859486 36.8854 1.01878 36.6319C1.16977 36.372 1.38325 36.2181 1.65888 36.1695C1.70306 36.1617 1.74711 36.1573 1.79055 36.1558L1.79052 36.1558ZM57.7147 38.721L57.0937 40.6313L57.2166 40.6715L57.2677 40.5146C57.323 40.3442 57.4133 40.2298 57.5377 40.1722C57.6236 40.1397 57.8053 40.1611 58.0852 40.2519L61.5398 41.3726L61.3338 42.0069C61.2717 42.198 61.1891 42.3372 61.09 42.4332C60.993 42.5223 60.8666 42.5868 60.7215 42.615C60.6262 42.6293 60.4782 42.6195 60.2875 42.5802L60.2455 42.7097L61.3192 43.0052L62.5184 39.3142L61.4775 38.9162L61.4356 39.0461C61.6361 39.126 61.7842 39.227 61.8738 39.3466C61.9701 39.4682 62.0187 39.5972 62.0221 39.7264C62.0206 39.824 61.9921 39.9807 61.9236 40.1922L61.7487 40.731L58.2937 39.6106C58.0408 39.5286 57.8837 39.4547 57.8309 39.3848C57.7416 39.2656 57.7244 39.1091 57.7865 38.9182L57.8372 38.7609L57.7146 38.7211L57.7147 38.721ZM6.57563 41.4881C6.52536 41.4873 6.47515 41.497 6.42485 41.5164C6.32426 41.5548 6.25671 41.6191 6.20886 41.7144C6.16335 41.8166 6.16331 41.916 6.2018 42.0166C6.24051 42.1171 6.30746 42.1914 6.40699 42.2303C6.50227 42.2784 6.60236 42.2781 6.70274 42.2395C6.80312 42.2008 6.87737 42.1337 6.92289 42.0319C6.96415 41.9391 6.97115 41.8369 6.93245 41.7364C6.89395 41.6359 6.82019 41.564 6.72725 41.523C6.67621 41.5003 6.62591 41.489 6.57564 41.4882L6.57563 41.4881ZM56.496 42.271L55.6665 44.1315L55.7845 44.1842L55.8547 44.0269C55.9013 43.9219 55.9713 43.8354 56.0645 43.767C56.1329 43.7192 56.1995 43.6937 56.2605 43.6973C56.3445 43.7032 56.4972 43.7477 56.7137 43.8442L59.5191 45.0933C59.7813 45.2102 59.9305 45.3159 59.9727 45.3975C60.0424 45.5227 60.0368 45.6773 59.9581 45.8541L59.8879 46.011L60.0059 46.0637L60.8354 44.2033L60.717 44.1506L60.6501 44.3012C60.6035 44.406 60.5331 44.4929 60.4399 44.5611C60.3781 44.6121 60.3115 44.6374 60.2439 44.6308C60.1637 44.6344 60.0136 44.5835 59.7907 44.4843L56.9854 43.2349C56.7297 43.1212 56.571 43.0193 56.5288 42.9377C56.4591 42.8123 56.465 42.6576 56.5467 42.4744L56.614 42.3237L56.496 42.271H56.496ZM7.01586 43.7625C6.799 43.7565 6.59273 43.8067 6.39654 43.9152C6.23342 44.0057 6.09463 44.1398 5.98574 44.2983C5.87685 44.4571 5.80422 44.6366 5.77764 44.84C5.74467 45.047 5.7276 45.4006 5.7361 45.9043C5.74312 46.5236 5.70907 46.9361 5.62187 47.1484C5.57019 47.2918 5.47549 47.4018 5.3498 47.4713C5.1869 47.5616 4.99773 47.5763 4.79569 47.5078C4.58387 47.4366 4.4237 47.2956 4.30886 47.0886C4.20465 46.9005 4.14763 46.6945 4.1506 46.463C4.14741 46.2352 4.20304 46.0242 4.31385 45.84C4.42465 45.6555 4.6061 45.4646 4.8613 45.2742L4.79858 45.1613L3.36139 45.9574L3.42453 46.0695C3.53257 46.0423 3.60927 46.0333 3.65798 46.0471C3.7103 46.0673 3.75349 46.1007 3.78135 46.1509C3.80921 46.201 3.82924 46.2966 3.84157 46.4373C3.86433 46.7444 3.94269 47.0038 4.06796 47.2297C4.26277 47.581 4.52931 47.8109 4.87129 47.9246C5.21624 48.0287 5.53008 48.0026 5.83122 47.8358C6.00072 47.7418 6.13702 47.6169 6.23953 47.4617C6.33885 47.3004 6.40775 47.1148 6.44348 46.8981C6.47921 46.6817 6.49671 46.3435 6.50288 45.8811C6.49905 45.4158 6.50924 45.1236 6.53029 45.0135C6.5522 44.8456 6.60407 44.7021 6.67318 44.5901C6.74847 44.4749 6.83143 44.3875 6.93819 44.3286C7.12003 44.2276 7.31887 44.2158 7.54048 44.29C7.7523 44.3612 7.93598 44.5301 8.07507 44.7811C8.19672 45.0004 8.26163 45.2351 8.26822 45.4693C8.27226 45.7131 8.21971 45.9141 8.12741 46.0882C8.02532 46.2595 7.84762 46.4565 7.57412 46.6735L7.63684 46.7864L9.06117 45.9973L8.99886 45.8844C8.89763 45.9239 8.82111 45.9338 8.77581 45.9259C8.72711 45.9121 8.68363 45.8785 8.65577 45.8283C8.62791 45.7782 8.59606 45.6315 8.54735 45.3962C8.49887 45.1608 8.46355 45.0083 8.44143 44.9388C8.40103 44.8217 8.34475 44.7056 8.27861 44.5864C8.06636 44.2038 7.77949 43.9528 7.41795 43.8334C7.27998 43.7899 7.14598 43.766 7.01587 43.7624L7.01586 43.7625ZM55.8155 45.5781C55.7484 45.5779 55.681 45.5803 55.6132 45.5856C54.892 45.6427 54.3189 46.0042 53.9044 46.6673C53.6725 47.0384 53.5497 47.4103 53.5529 47.7843C53.5497 48.1546 53.6636 48.5556 53.8973 48.9806L54.0148 48.9271C53.8285 48.4808 53.7463 48.125 53.7623 47.8557C53.7723 47.5826 53.8621 47.3172 54.0256 47.0558C54.2119 46.7579 54.4523 46.5357 54.7405 46.3859C55.0348 46.2396 55.3424 46.1947 55.6863 46.2402C56.0266 46.2918 56.377 46.4347 56.7422 46.6627C57.1807 46.9365 57.5139 47.2292 57.7362 47.5369C57.9584 47.8449 58.0653 48.1485 58.0685 48.4547C58.0693 48.7512 57.9837 49.0362 57.8163 49.304C57.6185 49.6202 57.3561 49.8373 57.035 49.9582C56.7115 50.0693 56.3092 50.0635 55.8192 49.9266L55.7619 50.018L57.1891 50.7817L57.2535 50.6784C57.1776 50.597 57.1214 50.5113 57.1031 50.4322C57.0931 50.3668 57.0955 50.309 57.1297 50.2542C57.1525 50.2176 57.2146 50.1717 57.3067 50.1193C57.6316 49.9246 57.8777 49.6807 58.0602 49.3887C58.2922 49.0176 58.4177 48.6138 58.4328 48.1837C58.4417 47.7495 58.3358 47.3364 58.1113 46.9508C57.8905 46.5593 57.5763 46.2363 57.1746 45.9853C56.7377 45.7127 56.2852 45.5792 55.8155 45.5781L55.8155 45.5781ZM9.74656 47.1766C9.66872 47.1781 9.59743 47.2029 9.5314 47.2493C9.44315 47.3109 9.3928 47.3898 9.36941 47.4938C9.35005 47.6036 9.37439 47.7009 9.43628 47.7889C9.49796 47.8771 9.58063 47.9328 9.68675 47.9462C9.79074 47.9696 9.88822 47.9458 9.97626 47.884C10.0645 47.8223 10.1201 47.7396 10.1395 47.6295C10.1572 47.5298 10.1389 47.4288 10.0772 47.3406C10.0153 47.2524 9.92689 47.2005 9.82673 47.1828C9.79924 47.178 9.77251 47.1761 9.74656 47.1766L9.74656 47.1766ZM52.0363 49.067L51.9483 49.1612C52.0172 49.2451 52.0505 49.315 52.0571 49.3604C52.0588 49.4114 52.0401 49.4626 52.001 49.5045C51.9619 49.5466 51.8325 49.6221 51.6234 49.7411C51.4144 49.8603 51.2799 49.9408 51.2205 49.9835C51.1216 50.0579 51.0285 50.1476 50.9356 50.2475C50.637 50.5676 50.4868 50.9179 50.4849 51.2985C50.4885 51.684 50.6163 51.9993 50.8787 52.2437C51.015 52.3708 51.1861 52.4612 51.3709 52.5156C51.5558 52.5702 51.7492 52.5835 51.9508 52.5459C52.158 52.5132 52.5 52.42 52.9768 52.2561C53.5638 52.0579 53.9669 51.9629 54.1959 51.9801C54.3484 51.9848 54.4823 52.0409 54.5872 52.1387C54.7239 52.266 54.7962 52.4409 54.7936 52.6542C54.7911 52.8776 54.7069 53.0734 54.5452 53.2466C54.3985 53.4038 54.22 53.5216 53.999 53.5903C53.7833 53.664 53.5648 53.6769 53.3551 53.6285C53.1452 53.5798 52.9079 53.4667 52.6474 53.2831L52.5593 53.3773L53.7614 54.4973L53.8494 54.4022C53.7905 54.3078 53.7575 54.2382 53.7556 54.1876C53.7588 54.1315 53.7773 54.08 53.8166 54.0382C53.8555 53.9959 53.9405 53.9475 54.0704 53.892C54.3558 53.7754 54.5787 53.6204 54.755 53.4313C55.0289 53.1378 55.1645 52.8131 55.167 52.4529C55.1596 52.0929 55.0379 51.8025 54.7857 51.5679C54.6441 51.4359 54.4834 51.3451 54.3039 51.2956C54.1195 51.2514 53.921 51.2432 53.7037 51.2761C53.4863 51.309 53.1597 51.397 52.7176 51.5343C52.2761 51.682 51.9943 51.7631 51.8831 51.7771C51.7166 51.8084 51.5638 51.8032 51.4357 51.7721C51.3024 51.7362 51.194 51.6844 51.1047 51.6011C50.9524 51.4594 50.8801 51.2741 50.882 51.0403C50.8844 50.8172 50.9877 50.5903 51.1836 50.3803C51.3548 50.1969 51.5585 50.0628 51.7793 49.9839C52.01 49.9048 52.2177 49.8928 52.4119 49.9266C52.6062 49.9704 52.8493 50.0786 53.1404 50.2711L53.2285 50.1769L52.0364 49.067L52.0363 49.067ZM11.1119 49.5726C10.9663 49.5807 10.8279 49.6113 10.6965 49.6651C10.4386 49.778 10.1415 49.9962 9.78978 50.3239L8.38249 51.6343C8.18811 51.8152 8.04806 51.9067 7.96129 51.9191C7.77733 51.9531 7.6218 51.9017 7.49441 51.7651L7.37229 51.6339L7.27759 51.7223L8.42776 52.9556L8.52205 52.8671L8.39993 52.7364C8.27764 52.605 8.22129 52.4712 8.23129 52.3346C8.2449 52.2336 8.36207 52.0855 8.5773 51.885L9.98417 50.5742C10.3517 50.2318 10.6435 50.0193 10.8598 49.9353C11.0756 49.8618 11.3145 49.8649 11.5854 49.9557C11.8517 50.0411 12.0899 50.1916 12.3053 50.4226C12.4716 50.601 12.5771 50.7774 12.6214 50.9615C12.6758 51.1461 12.6854 51.3134 12.6496 51.4646C12.6086 51.6205 12.5158 51.7949 12.3672 51.9826C12.2134 52.1649 12.0706 52.3276 11.9393 52.45L10.422 53.863C10.2276 54.0438 10.0769 54.1453 9.97503 54.1519C9.82637 54.1823 9.68673 54.1162 9.55466 53.9746L9.42714 53.8381L9.33285 53.9261L10.7372 55.4316L10.8315 55.3436L10.7094 55.2129C10.5869 55.0817 10.5255 54.9528 10.5399 54.8314C10.5542 54.71 10.6614 54.5511 10.8768 54.3507L12.2367 53.0843C12.6568 52.693 12.9161 52.4027 13.0193 52.2084C13.1616 51.9189 13.2127 51.6161 13.158 51.2944C13.1083 50.9781 12.9071 50.626 12.5549 50.2483C12.227 49.8968 11.9041 49.6876 11.5717 49.6149C11.4105 49.5787 11.2576 49.5644 11.1119 49.5725L11.1119 49.5726Z" fill="#0D2A54"/>
</svg>
