<svg width="92" height="32" viewBox="0 0 92 32" fill="none" xmlns="http://www.w3.org/2000/svg">
<path d="M87.5366 16.7856C87.0832 17.338 86.6638 17.9016 86.1764 18.4089C85.3603 19.2431 84.3628 19.4235 83.252 19.0966C83.1953 19.074 83.1273 19.074 83.0253 19.0628C83.1727 19.5137 82.9686 19.8744 82.7986 20.2352C82.4019 21.0581 81.8805 21.7796 81.1891 22.3883C79.4775 23.8876 76.7911 23.5156 75.3742 22.1403C74.4447 21.2272 73.878 20.1224 73.5719 18.8824C73.1072 17.0336 73.0279 15.1623 73.1639 13.2684C73.2886 11.5775 73.5493 9.89781 74.1387 8.29704C74.5354 7.2261 75.0455 6.23408 75.9069 5.45624C76.7231 4.71222 77.6752 4.41912 78.752 4.63331C80.0556 4.89259 80.917 5.96352 80.9283 7.37265C80.951 8.80432 80.6336 10.1909 80.1689 11.5324C79.3755 13.8434 78.2306 15.9627 76.6664 17.8453C76.5417 18.0031 76.4624 18.1384 76.5077 18.3526C76.7344 19.3108 77.1991 20.145 77.9246 20.7988C78.786 21.5654 80.1349 21.509 81.121 20.6861C81.5518 20.3253 81.8918 19.897 82.0845 19.3559C82.1639 19.1304 82.2999 18.9275 82.4246 18.6682C82.4359 18.6795 82.4359 18.702 82.4246 18.6682C81.6424 17.9918 81.3251 17.1013 81.3137 16.0867C81.3024 15.275 81.3704 14.4746 81.7218 13.7194C81.7671 13.6066 81.8351 13.5052 81.8918 13.4037C82.2205 12.9077 82.81 12.919 83.116 13.4488C83.354 13.8546 83.422 14.3168 83.422 14.779C83.4334 15.3201 83.422 15.8612 83.422 16.4136C83.422 16.5714 83.456 16.7293 83.5014 16.8871C83.6261 17.3267 84.0568 17.462 84.3968 17.1576C84.6235 16.9547 84.8276 16.7067 84.9863 16.4474C85.4397 15.7034 85.8704 14.9368 86.3011 14.1928C86.5618 13.7532 86.9359 13.4601 87.4233 13.3023C88.1147 13.0768 88.6135 13.2008 88.9988 13.8095C89.3616 14.3845 89.6903 15.0045 89.9056 15.647C90.6764 17.9467 91.1525 20.3253 91.1978 22.7603C91.2318 24.8571 90.8691 26.8975 89.747 28.7125C88.8855 30.099 87.7293 31.1813 86.1311 31.6547C83.1613 32.534 81.1437 30.8318 80.5883 28.3405C80.0669 25.9957 81.2684 24.2145 82.946 23.1774C83.9661 22.5349 85.0883 22.1065 86.3011 21.9825C86.5845 21.9487 86.8792 21.9825 87.1739 22.0163C87.4006 22.0388 87.446 22.1741 87.2873 22.3432C87.1853 22.4559 87.0606 22.5349 86.9359 22.625C86.1651 23.1661 85.3603 23.6622 84.6462 24.2709C84.1248 24.7105 83.6827 25.2742 83.2634 25.8153C82.9686 26.1873 82.844 26.6495 82.912 27.1455C82.9913 27.7768 83.4447 28.2165 84.0908 28.2615C84.5782 28.2954 85.0543 28.239 85.4963 28.0361C87.1626 27.3033 88.1601 26.0746 88.4094 24.2596C88.6588 22.4785 88.4434 20.7312 88.0921 18.9839C87.956 18.33 87.7747 17.6987 87.6046 17.0449C87.5933 16.9434 87.5593 16.842 87.5366 16.7856ZM76.2243 15.85C76.247 15.85 76.281 15.8612 76.3037 15.8612C76.4397 15.6358 76.5644 15.4103 76.6891 15.1848C77.9132 12.9415 78.9447 10.6306 79.1374 8.03776C79.1714 7.6432 79.1374 7.2261 79.0467 6.84282C78.9334 6.36935 78.4687 6.14389 78.0266 6.35808C77.7319 6.49336 77.4258 6.71882 77.2671 6.98937C76.9724 7.50793 76.7231 8.0603 76.5757 8.63523C76.077 10.608 76.0543 12.6259 76.1336 14.6437C76.1677 15.0496 76.2017 15.4554 76.2243 15.85Z" fill="#2B41B7"/>
<path d="M36.9826 21.43C36.5179 21.8696 36.0985 22.2642 35.7018 22.6813C35.6338 22.7489 35.6451 22.9067 35.6564 23.0195C35.8718 24.7781 35.9058 26.5367 35.4978 28.2727C35.3277 28.9829 35.1124 29.6931 34.693 30.3018C34.0809 31.1924 33.2874 31.8124 32.1879 31.9703C31.2131 32.1055 30.397 31.7786 29.7963 31.0008C29.1162 30.1215 29.0141 29.1182 29.1842 28.0585C29.5129 26.0745 30.7144 24.6653 32.2446 23.4704C32.3013 23.4253 32.358 23.3689 32.426 23.3351C32.8 23.1773 32.8794 22.918 32.766 22.5347C32.4713 21.4751 32.3013 20.3703 31.7119 19.4008C31.5645 19.1641 31.4058 18.9386 31.1338 18.6455C31.0658 18.747 31.0204 18.871 30.9411 18.9499C30.499 19.2994 30.0796 19.6714 29.6036 19.9758C29.0935 20.314 28.5721 20.2463 28.096 19.8518C27.3932 19.2656 26.9738 18.499 26.6905 17.6535C26.2257 16.2669 26.4638 14.9593 27.0645 13.6741C27.5519 12.637 28.8441 12.1072 29.9323 12.4228C30.9864 12.7272 31.9386 13.2232 32.7887 13.9222C32.8907 14.0123 33.0041 14.1138 33.0834 14.2265C33.1401 14.3167 33.1854 14.452 33.1514 14.5309C33.1174 14.5985 32.9587 14.6662 32.868 14.6549C32.5167 14.6324 32.1539 14.5647 31.8025 14.5309C31.2925 14.4858 30.7711 14.4294 30.2497 14.3956C29.8076 14.3731 29.4902 14.5647 29.3089 14.9705C28.9121 15.8498 28.7421 16.7517 28.9235 17.7099C28.9461 17.8001 28.9688 17.8903 29.0028 17.9804C29.1955 18.4652 29.4109 18.5215 29.8189 18.1834C30.1703 17.9015 30.499 17.5972 30.8731 17.3266C31.8479 16.6164 32.7774 16.7291 33.5141 17.6986C34.3076 18.7357 34.9197 19.8743 35.1804 21.1707C35.1917 21.2045 35.203 21.2383 35.2144 21.3173C35.3164 21.2609 35.4071 21.2271 35.4864 21.1707C35.8831 20.934 36.2685 20.6747 36.6653 20.4492C36.8693 20.3365 36.926 20.2012 36.926 19.987C36.9033 18.1721 36.8466 16.3684 36.8693 14.5534C36.9033 12.389 36.9826 10.2246 37.1073 8.06019C37.1527 7.19216 37.3454 6.32414 37.5267 5.45612C37.7307 4.45282 38.2748 4.21609 39.295 4.45282C40.6665 4.75719 41.8567 6.27905 41.9814 7.60927C42.1854 9.62713 41.5733 11.4195 40.6552 13.1556C40.3605 13.7305 40.0544 14.2942 39.7597 14.8691C39.703 14.9818 39.669 15.1058 39.6804 15.2636C39.737 15.1847 39.7824 15.1171 39.839 15.0382C40.3151 14.3054 40.8705 13.6516 41.5846 13.1443C42.9222 12.2087 44.441 12.5581 45.2345 13.9898C45.6426 14.7113 45.8352 15.5116 45.9146 16.3233C46.0166 17.3379 46.0506 18.3637 46.1526 19.3783C46.198 19.9419 46.266 20.5169 46.3907 21.0692C46.64 22.2529 47.8189 23.2337 49.0317 23.3577C49.1564 23.3689 49.3151 23.4929 49.3718 23.6169C49.4058 23.6846 49.2811 23.8875 49.1904 23.9326C48.8617 24.0679 48.533 24.237 48.1816 24.2708C46.7647 24.4173 45.5519 23.91 44.5091 22.9744C44.0103 22.5235 43.7836 21.8922 43.6589 21.2609C43.4549 20.2238 43.3076 19.1754 43.1489 18.127C43.0355 17.3491 42.9902 16.56 42.6388 15.8273C42.3667 15.2636 41.7773 15.1509 41.3126 15.568C41.1652 15.7033 41.0179 15.8498 40.9385 16.0189C40.7118 16.5262 40.4738 17.0448 40.3265 17.5746C39.9977 18.7583 39.8844 19.987 39.805 21.2158C39.7824 21.5202 39.771 21.8358 39.7144 22.1402C39.6123 22.6587 39.193 22.9744 38.6829 22.8504C38.2862 22.7602 37.8894 22.6024 37.538 22.3882C37.334 22.2642 37.232 21.9824 37.096 21.7682C37.0506 21.7118 37.0393 21.6103 36.9826 21.43ZM39.1363 13.46C39.1703 13.46 39.2043 13.4712 39.2496 13.4712C39.2723 13.4149 39.3063 13.3585 39.329 13.3021C39.805 11.8705 40.2131 10.4162 40.4285 8.91693C40.5532 8.01509 40.4738 7.12453 40.0998 6.27905C40.0431 6.15505 39.8844 5.98595 39.7937 5.99722C39.669 6.01977 39.5557 6.17759 39.465 6.29032C39.4083 6.36923 39.3856 6.48196 39.363 6.58342C39.2836 7.06816 39.1589 7.54163 39.1589 8.02637C39.1249 9.84132 39.1363 11.645 39.1363 13.46ZM32.8227 24.9584C32.2446 25.4657 31.7459 25.9956 31.3832 26.6381C31.0318 27.2469 30.9411 27.8894 31.0998 28.5545C31.1565 28.7687 31.2811 28.9942 31.4172 29.1633C31.6552 29.4564 32.0292 29.4676 32.29 29.1971C32.46 29.0167 32.596 28.7913 32.664 28.5545C32.9927 27.416 32.9247 26.2436 32.868 25.0712C32.868 25.0486 32.8454 25.0261 32.8227 24.9584Z" fill="#2B41B7"/>
<path d="M6.69562 13.3812C7.40972 13.3586 8.02181 13.4375 8.58856 13.7194C9.68805 14.2379 10.3681 15.1285 10.7309 16.2445C11.2183 17.71 11.2296 19.1755 10.4588 20.5508C9.38201 22.456 6.8203 23.324 4.85935 22.4785C4.2586 22.2192 3.79386 21.8134 3.41981 21.2836C3.36313 21.2047 3.30646 21.1257 3.18178 21.0694C3.18178 21.1821 3.19311 21.2836 3.18178 21.3963C3.15911 21.7232 3.15911 22.0501 3.0911 22.3658C3.00042 22.7491 2.66037 22.9294 2.26364 22.8731C1.39085 22.7603 0.84677 22.2418 0.495386 21.4752C0.189342 20.8101 0.109997 20.0886 0.0533219 19.3672C-0.105368 17.2929 0.0986618 15.23 0.552061 13.2008C0.84677 11.8706 1.17548 10.5517 1.75357 9.3229C2.33165 8.09414 3.17044 7.09084 4.28127 6.27918C5.76615 5.19697 8.25984 5.88463 9.00795 7.71086C9.29133 8.40978 9.16664 9.08616 8.93994 9.77382C8.53188 11.0364 7.82911 12.1299 6.94499 13.0994C6.87698 13.167 6.80897 13.2459 6.69562 13.3812ZM6.01552 17.1126C6.01552 17.1576 6.00418 17.2027 6.00418 17.2478C5.78882 17.3718 5.57345 17.4958 5.34676 17.6198C4.746 17.9693 4.26993 18.4089 4.08857 19.0966C3.90721 19.773 4.11124 20.2239 4.73467 20.5283C5.35809 20.8326 5.99285 20.8101 6.63894 20.641C7.82911 20.3254 8.6679 19.6603 8.87193 18.3864C9.01929 17.4846 8.8946 16.6053 8.47521 15.7936C7.88579 14.655 7.09234 14.2154 5.82282 14.407C4.07724 14.6776 3.69185 15.2638 3.48782 16.3347C3.41981 16.7067 3.36313 17.1013 3.44248 17.5184C3.55583 17.4507 3.62384 17.4057 3.70318 17.3606C4.2586 17.0787 4.84802 16.8645 5.49411 16.9209C5.66413 16.9435 5.83416 17.0449 6.01552 17.1126ZM7.4664 9.07489C7.4664 9.00725 7.4664 8.96216 7.4664 8.9058C7.43239 8.6127 7.42106 8.29705 7.08101 8.15051C6.75229 8.01523 6.48025 8.13923 6.23088 8.35342C6.1402 8.42106 6.04952 8.49997 5.98151 8.59015C5.60746 9.13126 5.21074 9.64982 4.88202 10.2135C4.43996 10.9913 4.09991 11.8142 3.92988 12.6935C3.8392 13.1219 3.90721 13.1895 4.32661 13.0994C4.42862 13.0768 4.53064 13.0543 4.63265 13.0204C6.38957 12.4681 7.40972 10.5291 7.4664 9.07489Z" fill="#2B41B7"/>
<path d="M57.0343 18.0481C57.0116 18.8936 57.1249 19.694 57.6464 20.3929C57.9751 20.8213 58.4398 20.9453 58.9612 20.8776C59.596 20.7874 60.1854 20.5845 60.6048 20.0885C61.0695 19.5587 61.4776 18.9838 61.9083 18.4314C62.033 18.2736 62.1123 17.9917 62.3844 18.0706C62.6677 18.1495 62.7244 18.4314 62.6791 18.6681C62.5997 19.1416 62.5204 19.6376 62.3277 20.0772C61.6929 21.5315 60.6501 22.5573 59.0519 22.918C57.1363 23.3351 55.2433 22.4333 54.3592 20.6973C53.7245 19.4572 53.5998 18.1383 53.7018 16.7855C53.7925 15.6469 54.1438 14.5985 54.7333 13.6065C55.47 12.3439 56.5922 11.645 57.9637 11.2843C58.6098 11.1152 59.2786 11.0137 59.9473 11.1152C60.9108 11.273 61.6136 11.9832 61.7723 12.9414C61.897 13.6742 61.795 14.3844 61.4662 15.0495C60.5821 16.8193 59.1766 17.8677 57.1589 18.0143C57.1363 18.0143 57.1023 18.0255 57.0343 18.0481ZM56.9889 16.2331C58.2244 15.94 59.1766 15.3538 59.8227 14.3393C60.0494 13.9898 60.174 13.584 60.038 13.1669C60.004 13.0767 59.868 12.9414 59.7887 12.9527C59.4826 12.9865 59.1539 12.9978 58.8932 13.1331C57.8617 13.708 57.2723 14.6324 56.9889 15.7597C56.9549 15.8837 56.9889 16.0302 56.9889 16.2331Z" fill="#2B41B7"/>
<path d="M51.9561 10.0103C52.5456 10.0103 53.0896 9.99904 53.6337 10.0103C53.8831 10.0216 54.1325 10.0779 54.3818 10.1343C54.5859 10.1794 54.7899 10.2696 54.8239 10.5176C54.8579 10.7656 54.7332 10.9572 54.5292 11.0474C54.1211 11.2503 53.7131 11.4307 53.2937 11.5773C52.9083 11.7125 52.4889 11.7914 52.1375 11.8816C52.1375 12.5467 52.1262 13.2006 52.1375 13.8544C52.1942 16.0526 52.2509 18.2396 52.0355 20.4266C51.9788 20.9677 51.8315 21.5201 51.5934 22.0048C51.174 22.8615 50.5166 22.6925 49.8138 22.343C49.6778 22.2754 49.5985 22.0161 49.5758 21.8244C49.4511 20.776 49.2924 19.7276 49.2584 18.668C49.1791 16.6276 49.1677 14.5872 49.1224 12.5355C49.1224 12.4678 49.1111 12.4115 49.1111 12.31C48.9977 12.3213 48.907 12.3326 48.805 12.3438C48.2496 12.434 47.6942 12.4904 47.1501 12.31C47.0481 12.2762 46.9574 12.2424 46.8667 12.186C46.4133 11.9042 46.368 11.3518 46.8214 11.0925C47.3315 10.7994 47.8869 10.5852 48.4423 10.3823C48.941 10.202 48.975 10.2358 48.975 9.71721C48.9864 8.84919 48.975 7.96989 48.9864 7.10187C48.9977 6.58331 49.009 6.07603 49.0657 5.55747C49.1111 5.11782 49.3718 4.94873 49.8025 4.96C50.5846 4.99382 51.8768 5.9182 51.8428 7.02296C51.8088 8.01499 51.9108 9.00701 51.9561 10.0103Z" fill="#2B41B7"/>
<path d="M15.775 14.4632C16.3418 14.0687 16.8858 13.6403 17.4752 13.3021C18.0987 12.9414 18.7561 12.6708 19.5042 12.7159C19.6402 12.7272 19.7649 12.7385 19.9009 12.7723C20.343 12.8625 20.4337 13.0428 20.2296 13.4487C19.9803 13.9334 19.5722 14.3054 19.0395 14.4181C17.5886 14.7338 16.8858 15.7371 16.6138 17.0673C16.4438 17.879 16.4551 18.7244 16.3758 19.5474C16.3077 20.1561 16.2851 20.7874 16.1264 21.3736C15.9677 21.9823 15.571 22.4558 14.8909 22.5911C14.3241 22.7038 13.8254 22.5009 13.4967 22.0049C13.0999 21.4074 13.0093 20.731 12.9866 20.0434C12.9526 19.0401 12.9979 18.0368 12.9639 17.0335C12.9299 16.1316 12.8846 15.2411 12.7486 14.3505C12.6239 13.5163 12.2272 13.2345 11.377 13.1894C11.139 13.1781 10.8443 13.2232 10.7649 12.9188C10.6969 12.6483 10.935 12.5017 11.1163 12.3552C11.9098 11.7464 13.2813 11.5097 14.2788 12.4454C14.9022 13.0428 15.469 13.6854 15.775 14.4632Z" fill="#2B41B7"/>
<path d="M67.6665 14.4632C68.2332 14.0687 68.7546 13.6516 69.3327 13.3134C69.9561 12.9414 70.6362 12.6708 71.3957 12.7159C71.5317 12.7272 71.6564 12.7385 71.7924 12.7723C72.2345 12.8625 72.3252 13.0428 72.1211 13.4487C71.8718 13.9334 71.4637 14.3054 70.931 14.4181C69.4801 14.7338 68.7773 15.7371 68.5053 17.0673C68.3352 17.879 68.3466 18.7244 68.2672 19.5474C68.1992 20.1561 68.1766 20.7874 68.0179 21.3736C67.8592 21.9823 67.4625 22.4558 66.7824 22.5911C66.2043 22.7038 65.7395 22.5122 65.4108 22.0274C65.0028 21.43 64.9121 20.731 64.8781 20.0434C64.8441 19.0401 64.8894 18.0368 64.8554 17.0335C64.8214 16.1429 64.7761 15.2411 64.64 14.3505C64.5154 13.5163 64.1186 13.2345 63.2685 13.1894C63.0305 13.1781 62.7358 13.2232 62.6564 12.9188C62.5884 12.6483 62.8264 12.5017 63.0078 12.3552C63.8013 11.7464 65.1728 11.5097 66.1703 12.4454C66.7937 13.0428 67.3491 13.6854 67.6665 14.4632Z" fill="#2B41B7"/>
<path d="M20.4789 17.7211C20.5356 16.6953 20.5356 15.6694 20.8869 14.6887C20.989 14.4181 21.1023 14.1476 21.2383 13.8883C21.6464 13.1105 22.3718 12.8174 23.1993 12.7723C23.8114 12.7385 24.1401 13.133 24.0381 13.7418C23.9701 14.1363 23.8454 14.5309 23.8114 14.9254C23.6527 16.4698 23.6073 18.0142 24.0041 19.5361C24.0494 19.739 24.1401 19.9194 24.2194 20.111C24.5368 21.0016 25.7723 21.1481 26.3391 20.5845C26.5318 20.3816 26.7131 20.1674 26.9058 19.9645C27.0305 19.8405 27.1552 19.6939 27.3025 19.615C27.5632 19.4685 27.7559 19.5812 27.7559 19.8856C27.7559 20.0321 27.7333 20.1899 27.6766 20.3252C27.1098 21.9034 25.5343 23.2562 23.528 22.9067C21.635 22.5798 20.9549 21.6103 20.6829 20.0096C20.5582 19.2543 20.5469 18.4764 20.4789 17.7211Z" fill="#2B41B7"/>
<path d="M22.916 11.3069C22.4173 11.352 21.9979 11.0927 21.7485 10.5742C21.5105 10.0781 21.5558 9.59341 21.8959 9.15376C22.2812 8.64647 22.848 8.59011 23.4034 8.70284C23.7888 8.78175 24.1628 8.98466 24.4802 9.21012C24.8543 9.4694 24.9223 9.85269 24.7523 10.2923C24.5029 10.9462 23.8681 11.3069 22.916 11.3069Z" fill="#FF9900"/>
<path d="M23.392 4.99217C23.3348 5.23468 23.2919 5.67321 23.2676 6.06504C23.2554 6.26243 23.2477 6.45087 23.2454 6.60081C23.2442 6.67571 23.2444 6.74183 23.2461 6.79507C23.2477 6.84518 23.2508 6.89258 23.2579 6.92465C23.2587 6.92803 23.2596 6.93137 23.2607 6.93466C23.2924 7.03304 23.3512 7.11027 23.4342 7.15888C23.5143 7.20579 23.6073 7.22047 23.7015 7.21367C23.8874 7.2121 24.0416 7.11468 24.1327 6.97366C24.2034 6.86425 24.2496 6.72448 24.2863 6.59511C24.3005 6.5451 24.3131 6.49727 24.3252 6.45167L24.3252 6.45166C24.346 6.37275 24.3651 6.30048 24.3874 6.23511C24.6055 5.64759 24.7005 5.13922 24.8039 4.58572L24.8039 4.58565C24.8348 4.42024 24.8664 4.25078 24.9024 4.07399C24.9031 4.07057 24.9036 4.06712 24.904 4.06366C24.9394 3.73492 25.0098 3.35686 25.0702 3.03264L25.0728 3.01917C25.1299 2.74191 25.1925 2.46454 25.2557 2.18465L25.2667 2.13602C25.3335 1.83979 25.4006 1.54076 25.4616 1.23835C25.5229 0.947655 25.5718 0.657315 25.6203 0.369569L25.6203 0.369558L25.6205 0.368468L25.6207 0.366851L25.621 0.365209C25.6363 0.254517 25.6093 0.104447 25.4635 0.0362551C25.3172 -0.0460801 25.176 0.0254231 25.1048 0.115323C25.0059 0.230274 24.9043 0.360966 24.8269 0.494182L24.8262 0.495369C24.5652 0.957097 24.3921 1.44302 24.2221 1.93174L24.2219 1.93216C23.8797 2.92875 23.6354 3.96223 23.3926 4.98938L23.392 4.99217Z" fill="#FF9900"/>
<path d="M23.392 4.99217C23.3348 5.23468 23.2919 5.67321 23.2676 6.06504C23.2554 6.26243 23.2477 6.45087 23.2454 6.60081C23.2442 6.67571 23.2444 6.74183 23.2461 6.79507C23.2477 6.84518 23.2508 6.89258 23.2579 6.92465C23.2587 6.92803 23.2596 6.93137 23.2607 6.93466C23.2924 7.03304 23.3512 7.11027 23.4342 7.15888C23.5143 7.20579 23.6073 7.22047 23.7015 7.21367C23.8874 7.2121 24.0416 7.11468 24.1327 6.97366C24.2034 6.86425 24.2496 6.72448 24.2863 6.59511C24.3005 6.5451 24.3131 6.49727 24.3252 6.45167L24.3252 6.45166C24.346 6.37275 24.3651 6.30048 24.3874 6.23511C24.6055 5.64759 24.7005 5.13922 24.8039 4.58572L24.8039 4.58565C24.8348 4.42024 24.8664 4.25078 24.9024 4.07399C24.9031 4.07057 24.9036 4.06712 24.904 4.06366C24.9394 3.73492 25.0098 3.35686 25.0702 3.03264L25.0728 3.01917C25.1299 2.74191 25.1925 2.46454 25.2557 2.18465L25.2667 2.13602C25.3335 1.83979 25.4006 1.54076 25.4616 1.23835C25.5229 0.947655 25.5718 0.657315 25.6203 0.369569L25.6203 0.369558L25.6205 0.368468L25.6207 0.366851L25.621 0.365209C25.6363 0.254517 25.6093 0.104447 25.4635 0.0362551C25.3172 -0.0460801 25.176 0.0254231 25.1048 0.115323C25.0059 0.230274 24.9043 0.360966 24.8269 0.494182L24.8262 0.495369C24.5652 0.957097 24.3921 1.44302 24.2221 1.93174L24.2219 1.93216C23.8797 2.92875 23.6354 3.96223 23.3926 4.98938L23.392 4.99217Z" stroke="#FF9900"/>
<path d="M19.578 6.08706C19.7129 6.2969 19.9991 6.63325 20.2646 6.92376C20.3983 7.07012 20.5288 7.20698 20.6353 7.31318C20.6884 7.36622 20.7362 7.4122 20.7758 7.44811C20.813 7.48192 20.8493 7.51276 20.8774 7.53001C20.8804 7.53182 20.8834 7.5335 20.8866 7.53504C20.9796 7.58098 21.0763 7.59294 21.1691 7.56767C21.2588 7.54328 21.3343 7.48718 21.395 7.41532C21.5235 7.28164 21.5608 7.10378 21.5227 6.94051C21.4931 6.81384 21.4246 6.68345 21.3569 6.56709C21.3308 6.52212 21.3051 6.47977 21.2806 6.43938L21.2806 6.43935C21.2383 6.36947 21.1995 6.30546 21.1679 6.244C20.8965 5.67889 20.5963 5.25672 20.2694 4.79709L20.2694 4.79703C20.1717 4.65967 20.0716 4.51895 19.9693 4.37007C19.9673 4.3672 19.9652 4.36441 19.9629 4.36173C19.7507 4.10729 19.5273 3.79346 19.3357 3.52433L19.3278 3.51315C19.1678 3.27908 19.0115 3.04106 18.8538 2.80089L18.8264 2.75915C18.6595 2.50498 18.4907 2.24864 18.3153 1.99426C18.1485 1.74793 17.9733 1.51061 17.7997 1.27541L17.7991 1.27452L17.7981 1.2732L17.7971 1.27189C17.728 1.18379 17.601 1.09839 17.4502 1.15479C17.2888 1.2017 17.2419 1.35219 17.257 1.46568C17.2709 1.61633 17.2943 1.77984 17.3364 1.92794L17.3367 1.92925C17.4876 2.43725 17.7171 2.89949 17.9508 3.36144L17.951 3.36183C18.4307 4.3007 19.0053 5.19542 19.5764 6.08464L19.578 6.08706Z" fill="#FF9900"/>
<path d="M19.578 6.08706C19.7129 6.2969 19.9991 6.63325 20.2646 6.92376C20.3983 7.07012 20.5288 7.20698 20.6353 7.31318C20.6884 7.36622 20.7362 7.4122 20.7758 7.44811C20.813 7.48192 20.8493 7.51276 20.8774 7.53001C20.8804 7.53182 20.8834 7.5335 20.8866 7.53504C20.9796 7.58098 21.0763 7.59294 21.1691 7.56767C21.2588 7.54328 21.3343 7.48718 21.395 7.41532C21.5235 7.28164 21.5608 7.10378 21.5227 6.94051C21.4931 6.81384 21.4246 6.68345 21.3569 6.56709C21.3308 6.52212 21.3051 6.47977 21.2806 6.43938L21.2806 6.43935C21.2383 6.36947 21.1995 6.30546 21.1679 6.244C20.8965 5.67889 20.5963 5.25672 20.2694 4.79709L20.2694 4.79703C20.1717 4.65967 20.0716 4.51895 19.9693 4.37007C19.9673 4.3672 19.9652 4.36441 19.9629 4.36173C19.7507 4.10729 19.5273 3.79346 19.3357 3.52433L19.3278 3.51315C19.1678 3.27908 19.0115 3.04106 18.8538 2.80089L18.8264 2.75915C18.6595 2.50498 18.4907 2.24864 18.3153 1.99426C18.1485 1.74793 17.9733 1.51061 17.7997 1.27541L17.7991 1.27452L17.7981 1.2732L17.7971 1.27189C17.728 1.18379 17.601 1.09839 17.4502 1.15479C17.2888 1.2017 17.2419 1.35219 17.257 1.46568C17.2709 1.61633 17.2943 1.77984 17.3364 1.92794L17.3367 1.92925C17.4876 2.43725 17.7171 2.89949 17.9508 3.36144L17.951 3.36183C18.4307 4.3007 19.0053 5.19542 19.5764 6.08464L19.578 6.08706Z" stroke="#FF9900"/>
<path d="M18.4474 10.4274C18.695 10.4653 19.1074 10.5076 19.5326 10.5428C19.7314 10.5396 19.9209 10.5327 20.0714 10.5233C20.1466 10.5187 20.2129 10.5134 20.2661 10.5076C20.3162 10.5021 20.3635 10.4954 20.3951 10.4858C20.3984 10.4848 20.4017 10.4836 20.4049 10.4823C20.5011 10.4432 20.5739 10.3789 20.6162 10.2929C20.657 10.2098 20.6646 10.1164 20.6504 10.0236C20.6345 9.83933 20.5248 9.69397 20.3764 9.61458C20.2613 9.55298 20.1176 9.518 19.985 9.49165C19.9338 9.48146 19.8849 9.47264 19.8382 9.46422L19.8382 9.46422C19.7575 9.44965 19.6836 9.43631 19.6163 9.41929C19.0104 9.24858 18.4934 9.19381 17.9306 9.13418L17.9305 9.13417C17.7623 9.11635 17.5899 9.09809 17.4099 9.07618C17.4064 9.07576 17.4029 9.07549 17.3994 9.07539C17.0671 9.06577 16.6827 9.02521 16.353 8.99043L16.3393 8.98898C16.0569 8.95378 15.774 8.91321 15.4885 8.87228L15.4389 8.86517C15.1368 8.82187 14.8318 8.7785 14.5239 8.7414C14.2278 8.70322 13.9329 8.67721 13.6407 8.65143L13.6407 8.65143L13.6396 8.65133L13.6379 8.6512L13.6363 8.65109C13.5241 8.64447 13.3758 8.68285 13.3187 8.83271C13.2475 8.98417 13.3301 9.11859 13.4258 9.1823C13.5487 9.27144 13.6876 9.36199 13.8271 9.42846L13.8284 9.42904C14.3115 9.65204 14.812 9.78606 15.3151 9.91675L15.3155 9.91686C16.0383 10.1016 16.7771 10.1995 17.5174 10.2976C17.8275 10.3387 18.1379 10.3798 18.4474 10.4274Z" fill="#FF9900"/>
<path d="M18.4474 10.4274C18.695 10.4653 19.1074 10.5076 19.5326 10.5428C19.7314 10.5396 19.9209 10.5327 20.0714 10.5233C20.1466 10.5187 20.2129 10.5134 20.2661 10.5076C20.3162 10.5021 20.3635 10.4954 20.3951 10.4858C20.3984 10.4848 20.4017 10.4836 20.4049 10.4823C20.5011 10.4432 20.5739 10.3789 20.6162 10.2929C20.657 10.2098 20.6646 10.1164 20.6504 10.0236C20.6345 9.83933 20.5248 9.69397 20.3764 9.61458C20.2613 9.55298 20.1176 9.518 19.985 9.49165C19.9338 9.48146 19.8849 9.47264 19.8382 9.46422L19.8382 9.46422C19.7575 9.44965 19.6836 9.43631 19.6163 9.41929C19.0104 9.24858 18.4934 9.19381 17.9306 9.13418L17.9305 9.13417C17.7623 9.11635 17.5899 9.09809 17.4099 9.07618C17.4064 9.07576 17.4029 9.07549 17.3994 9.07539C17.0671 9.06577 16.6827 9.02521 16.353 8.99043L16.3393 8.98898C16.0569 8.95378 15.774 8.91321 15.4885 8.87228L15.4389 8.86517C15.1368 8.82187 14.8318 8.7785 14.5239 8.7414C14.2278 8.70322 13.9329 8.67721 13.6407 8.65143L13.6407 8.65143L13.6396 8.65133L13.6379 8.6512L13.6363 8.65109C13.5241 8.64447 13.3758 8.68285 13.3187 8.83271C13.2475 8.98417 13.3301 9.11859 13.4258 9.1823C13.5487 9.27144 13.6876 9.36199 13.8271 9.42846L13.8284 9.42904C14.3115 9.65204 14.812 9.78606 15.3151 9.91675L15.3155 9.91686C16.0383 10.1016 16.7771 10.1995 17.5174 10.2976C17.8275 10.3387 18.1379 10.3798 18.4474 10.4274Z" stroke="#FF9900"/>
<path d="M26.8991 6.15069C26.7032 6.30579 26.3962 6.62352 26.133 6.91606C26.0004 7.06344 25.8769 7.2066 25.7817 7.32285C25.7341 7.38092 25.6931 7.43292 25.6612 7.47575C25.6312 7.51606 25.6041 7.55517 25.5898 7.58476C25.5883 7.58787 25.5869 7.59105 25.5857 7.59429C25.5493 7.6911 25.5473 7.78792 25.5822 7.87721C25.6158 7.96338 25.6796 8.03225 25.7578 8.08493C25.9047 8.19832 26.0864 8.2169 26.2458 8.16237C26.3695 8.12007 26.4928 8.03884 26.6022 7.95992C26.6445 7.92941 26.6842 7.89967 26.7221 7.87131L26.7221 7.87129C26.7877 7.82221 26.8477 7.77727 26.9059 7.7397C27.4431 7.413 27.8345 7.07255 28.2605 6.70187L28.2605 6.70185C28.3879 6.59106 28.5183 6.47757 28.6567 6.36095C28.6593 6.3587 28.6619 6.35632 28.6644 6.35383C28.897 6.11764 29.1879 5.86435 29.4373 5.64713L29.4477 5.63811C29.6653 5.45574 29.8873 5.27663 30.1112 5.09588L30.1501 5.06448C30.3872 4.87317 30.6262 4.67985 30.8625 4.48013C31.0917 4.28972 31.311 4.09201 31.5284 3.89606L31.5284 3.89605L31.5292 3.89531L31.5304 3.8942L31.5316 3.89306C31.6126 3.81563 31.685 3.68122 31.613 3.53784C31.5495 3.38304 31.3942 3.35216 31.2822 3.37879C31.133 3.40806 30.9719 3.44806 30.8281 3.50488L30.8268 3.50539C30.3342 3.70691 29.8956 3.98157 29.4576 4.26036L29.4572 4.2606C28.5676 4.83181 27.7319 5.49239 26.9014 6.14891L26.8991 6.15069Z" fill="#FF9900"/>
<path d="M26.8991 6.15069C26.7032 6.30579 26.3962 6.62352 26.133 6.91606C26.0004 7.06344 25.8769 7.2066 25.7817 7.32285C25.7341 7.38092 25.6931 7.43292 25.6612 7.47575C25.6312 7.51606 25.6041 7.55517 25.5898 7.58476C25.5883 7.58787 25.5869 7.59105 25.5857 7.59429C25.5493 7.6911 25.5473 7.78792 25.5822 7.87721C25.6158 7.96338 25.6796 8.03225 25.7578 8.08493C25.9047 8.19832 26.0864 8.2169 26.2458 8.16237C26.3695 8.12007 26.4928 8.03884 26.6022 7.95992C26.6445 7.92941 26.6842 7.89967 26.7221 7.87131L26.7221 7.87129C26.7877 7.82221 26.8477 7.77727 26.9059 7.7397C27.4431 7.413 27.8345 7.07255 28.2605 6.70187L28.2605 6.70185C28.3879 6.59106 28.5183 6.47757 28.6567 6.36095C28.6593 6.3587 28.6619 6.35632 28.6644 6.35383C28.897 6.11764 29.1879 5.86435 29.4373 5.64713L29.4477 5.63811C29.6653 5.45574 29.8873 5.27663 30.1112 5.09588L30.1501 5.06448C30.3872 4.87317 30.6262 4.67985 30.8625 4.48013C31.0917 4.28972 31.311 4.09201 31.5284 3.89606L31.5284 3.89605L31.5292 3.89531L31.5304 3.8942L31.5316 3.89306C31.6126 3.81563 31.685 3.68122 31.613 3.53784C31.5495 3.38304 31.3942 3.35216 31.2822 3.37879C31.133 3.40806 30.9719 3.44806 30.8281 3.50488L30.8268 3.50539C30.3342 3.70691 29.8956 3.98157 29.4576 4.26036L29.4572 4.2606C28.5676 4.83181 27.7319 5.49239 26.9014 6.14891L26.8991 6.15069Z" stroke="#FF9900"/>
<path d="M28.232 9.24396C27.9824 9.26449 27.5604 9.32229 27.1781 9.41986C26.9854 9.46901 26.8028 9.51972 26.6586 9.56366C26.5866 9.58561 26.5234 9.60612 26.473 9.6241C26.4255 9.64103 26.3811 9.65855 26.3527 9.6752C26.3497 9.67695 26.3468 9.67884 26.3439 9.68086C26.2596 9.7412 26.2038 9.82056 26.1828 9.91404C26.1626 10.0043 26.1772 10.0968 26.2126 10.1838C26.2713 10.3593 26.412 10.4753 26.5749 10.5181C26.7014 10.5513 26.8493 10.552 26.9844 10.5469C27.0366 10.545 27.0862 10.5422 27.1335 10.5396L27.1336 10.5396C27.2155 10.535 27.2905 10.5309 27.3599 10.5318C28.0113 10.5035 28.3961 10.4689 28.6571 10.4454C28.8363 10.4293 28.9572 10.4184 29.066 10.4184L29.0661 10.4184C29.2338 10.3968 29.4057 10.3746 29.5859 10.3542C29.5894 10.3538 29.5929 10.3532 29.5963 10.3525C29.9217 10.2849 30.3051 10.2352 30.6339 10.1926L30.6475 10.1909C30.9304 10.1597 31.215 10.1336 31.5022 10.1072L31.5521 10.1026C31.8561 10.0747 32.1628 10.0462 32.4709 10.0109C32.7679 9.97943 33.0607 9.9364 33.3509 9.89375L33.3509 9.89375L33.352 9.89359L33.3536 9.89334L33.3553 9.89306C33.4659 9.8735 33.6012 9.8018 33.6215 9.64284C33.6553 9.47905 33.5435 9.36748 33.4355 9.32769C33.2951 9.26948 33.1388 9.21362 32.9876 9.18131L32.9862 9.18104C32.4642 9.07613 31.946 9.0618 31.4261 9.0513L31.4257 9.05129C30.5543 9.03709 29.9005 9.09357 29.107 9.16213C28.9363 9.17687 28.7592 9.19217 28.5721 9.20744L28.232 9.24396Z" fill="#FF9900"/>
<path d="M28.232 9.24396C27.9824 9.26449 27.5604 9.32229 27.1781 9.41986C26.9854 9.46901 26.8028 9.51972 26.6586 9.56366C26.5866 9.58561 26.5234 9.60612 26.473 9.6241C26.4255 9.64103 26.3811 9.65855 26.3527 9.6752C26.3497 9.67695 26.3468 9.67884 26.3439 9.68086C26.2596 9.7412 26.2038 9.82056 26.1828 9.91404C26.1626 10.0043 26.1772 10.0968 26.2126 10.1838C26.2713 10.3593 26.412 10.4753 26.5749 10.5181C26.7014 10.5513 26.8493 10.552 26.9844 10.5469C27.0366 10.545 27.0862 10.5422 27.1335 10.5396L27.1336 10.5396C27.2155 10.535 27.2905 10.5309 27.3599 10.5318C28.0113 10.5035 28.3961 10.4689 28.6571 10.4454C28.8363 10.4293 28.9572 10.4184 29.066 10.4184L29.0661 10.4184C29.2338 10.3968 29.4057 10.3746 29.5859 10.3542C29.5894 10.3538 29.5929 10.3532 29.5963 10.3525C29.9217 10.2849 30.3051 10.2352 30.6339 10.1926L30.6475 10.1909C30.9304 10.1597 31.215 10.1336 31.5022 10.1072L31.5521 10.1026C31.8561 10.0747 32.1628 10.0462 32.4709 10.0109C32.7679 9.97943 33.0607 9.9364 33.3509 9.89375L33.3509 9.89375L33.352 9.89359L33.3536 9.89334L33.3553 9.89306C33.4659 9.8735 33.6012 9.8018 33.6215 9.64284C33.6553 9.47905 33.5435 9.36748 33.4355 9.32769C33.2951 9.26948 33.1388 9.21362 32.9876 9.18131L32.9862 9.18104C32.4642 9.07613 31.946 9.0618 31.4261 9.0513L31.4257 9.05129C30.5543 9.03709 29.9005 9.09357 29.107 9.16213C28.9363 9.17687 28.7592 9.19217 28.5721 9.20744L28.232 9.24396Z" stroke="#FF9900"/>
</svg>
